PathFileType	3	(X/Y/Z)	D:\minhoCalibration\240510\subject2_KPNP\preferred\preferred16.trc
DataRate	CameraRate	NumFrames	NumMarkers	Units	OrigDataRate	OrigDataStartFrame	OrigNumFrames
200.0	200.0	21	10	mm	200.0	1025	215	
Frame#	Time	Left_Ankle_Outer1			Left_Ankle_Inner1			Left_Knee_Outer1			Left_Knee_Inner1			Left_Wrist1			Right_Wrist1			Right_Knee_Inner1			Right_Knee_Outer1			Right_Ankle_Inner1			Right_Ankle_Outer1			
		X1	Y1	Z1	X2	Y2	Z2	X3	Y3	Z3	X4	Y4	Z4	X5	Y5	Z5	X6	Y6	Z6	X7	Y7	Z7	X8	Y8	Z8	X9	Y9	Z9	X10	Y10	Z10	
1025	5.115	-725.0752	83.638268	-696.93658	-723.0838	87.980118	-641.0968	-598.7384	506.953	-744.75629	-637.45032	495.21146	-656.25281	-549.51605	975.30609	-816.46747	-770.92743	1051.2272	-566.57819	-688.58246	551.77344	-422.40848	-766.58234	592.73779	-392.70502	-804.72198	172.13792	-523.56152	-899.6366	192.02071	-495.5719
1026	5.12	-725.12372	83.629829	-697.06775	-723.52478	88.00795	-640.64661	-598.60168	506.91211	-743.96008	-637.92688	495.23584	-655.88867	-547.92841	976.28857	-813.92029	-773.96411	1049.2914	-567.97156	-694.89355	547.565	-429.32883	-773.5484	588.008	-400.82333	-810.01147	169.99704	-540.29242	-903.77728	187.99403	-516.91394
1027	5.125	-725.11591	83.575478	-697.0639	-724.68835	86.363808	-643.81036	-598.25592	507.04575	-743.31177	-638.2641	495.39905	-655.54132	-547.10632	976.65979	-812.38495	-777.12402	1047.3594	-569.43231	-700.90643	543.53772	-436.11313	-780.25677	583.52386	-409.00354	-814.85065	167.9261	-556.51483	-907.47321	185.22868	-537.07391
1028	5.13	-725.13544	83.537216	-697.03906	-723.19464	88.923149	-638.75153	-597.94495	507.08444	-742.72015	-638.17023	495.47385	-655.04211	-545.37738	977.46423	-809.83368	-780.27075	1045.405	-570.94916	-706.90845	539.74133	-443.33661	-786.75018	579.05859	-417.52466	-814.72968	168.12804	-572.9715	-915.25256	184.82074	-552.10223
1029	5.135	-725.43176	83.647209	-697.16614	-723.41174	87.848381	-641.31317	-596.7774	507.52716	-742.59552	-638.39508	495.65213	-654.72406	-544.84668	977.81964	-808.1947	-783.45105	1043.3845	-572.50305	-712.77734	536.04333	-450.48203	-793.22302	574.99304	-425.5975	-819.09534	167.20161	-588.49255	-920.28088	183.351	-569.91827
1030	5.14	-725.49084	83.643211	-697.13104	-723.90375	87.457123	-641.37964	-596.06122	507.56812	-742.17554	-638.35016	495.69818	-654.3891	-543.81824	978.56512	-806.09973	-786.62164	1041.2321	-574.08203	-718.36365	532.76141	-458.10574	-799.51898	570.98785	-433.9704	-824.01575	165.5408	-604.36633	-925.3158	182.52173	-587.56323
1031	5.145	-725.5545	83.498741	-696.99567	-723.66711	87.46196	-641.4635	-595.53149	507.49338	-741.63196	-638.17352	495.62607	-653.96649	-542.86005	979.24121	-804.0415	-789.61871	1039.1565	-575.84399	-724.16217	528.82306	-465.19824	-805.59467	567.16418	-442.34393	-832.31128	162.73544	-620.1355	-930.88007	181.54698	-606.07495
1032	5.15	-725.63568	83.584953	-697.06317	-723.771	87.365334	-641.35364	-595.66565	506.84564	-740.65216	-637.89282	495.52664	-653.70117	-542.05963	980.05151	-801.9884	-792.59528	1037.0087	-577.56592	-729.4054	525.36365	-472.54498	-810.61328	562.19739	-453.34314	-832.43512	164.7325	-633.27765	-935.59686	180.99802	-622.93988
1033	5.155	-725.69244	83.451706	-697.05127	-723.84875	87.207603	-641.34613	-594.80035	506.67786	-740.20081	-637.52563	495.38782	-653.47491	-541.30176	980.75171	-800.00604	-795.93481	1034.9677	-579.16553	-734.88159	521.8429	-479.88211	-817.40997	559.52222	-459.20541	-841.03247	159.41632	-650.66168	-940.08118	180.69221	-639.58813
1034	5.16	-725.67725	83.414589	-697.07361	-724.1264	86.386955	-642.25922	-593.77155	506.54514	-739.76007	-637.33051	495.36118	-653.66638	-540.67719	981.53931	-797.96027	-799.06079	1032.8674	-581.04553	-740.08533	518.54199	-486.15582	-822.62292	555.71906	-468.45517	-845.10498	158.46609	-665.31268	-944.5556	180.58818	-655.92828
1035	5.165	-725.56982	83.411041	-697.17523	-723.85486	87.772278	-640.52362	-592.48328	506.42188	-739.37268	-636.39709	495.0563	-653.07996	-540.00098	982.35193	-795.95312	-802.2782	1030.7607	-583.02417	-745.29126	514.7196	-493.24277	-829.03491	552.57849	-475.98343	-849.27185	158.15526	-678.72656	-948.50824	180.51982	-671.88416
1036	5.17	-725.11292	83.267052	-697.19012	-723.92487	87.122612	-641.61243	-590.9798	506.53397	-739.17023	-635.85889	494.97739	-653.23297	-539.52344	983.15845	-793.96216	-805.53082	1028.6356	-585.09827	-750.63501	511.00479	-500.64105	-834.81732	549.328	-484.53174	-853.19458	157.45551	-692.21313	-952.16956	180.75633	-687.72247
1037	5.175	-724.84558	83.222008	-697.4259	-724.35254	87.055908	-641.53491	-589.9469	506.03949	-738.46265	-634.66785	494.74417	-652.70789	-539.09698	984.02026	-792.00568	-808.81281	1026.5056	-587.28015	-756.32605	508.52115	-506.88922	-840.57843	546.20758	-492.99396	-856.85034	156.81505	-705.35455	-956.03705	181.15768	-703.6955
1038	5.18	-724.58386	83.229118	-697.76733	-724.31866	87.162704	-641.78558	-588.38324	506.00497	-737.89655	-633.6225	494.62784	-652.37061	-538.94958	984.8479	-789.87006	-812.19275	1024.3225	-589.56097	-761.97607	505.63367	-514.50946	-846.43579	543.41754	-501.55188	-860.62793	156.22838	-717.64014	-959.03735	181.48509	-718.72632
1039	5.185	-724.25262	83.209579	-698.21039	-723.84216	87.369812	-642.48529	-586.82251	505.9054	-737.26172	-632.72406	494.40359	-652.06482	-538.68274	985.7594	-787.89392	-815.57703	1022.1265	-591.96191	-767.50903	502.96759	-520.92517	-852.20343	540.65924	-510.16647	-863.49146	155.81813	-729.88257	-961.84192	181.74126	-732.94592
1040	5.19	-723.9408	83.258469	-698.69336	-724.29486	88.35498	-641.17902	-585.07941	505.83893	-736.54883	-632.21722	494.41092	-652.44171	-538.2547	986.47412	-785.93268	-818.96851	1019.9373	-594.41394	-773.23578	500.8942	-527.93811	-858.46216	538.45685	-518.24164	-866.2016	155.37079	-741.66382	-963.38409	181.67004	-746.65253
1041	5.195	-723.60535	83.221619	-699.19397	-723.8136	87.559265	-643.38306	-583.33972	505.79703	-735.70123	-631.11194	494.23117	-651.80304	-538.65509	987.23431	-784.00714	-822.23297	1017.8016	-596.95422	-779.19855	498.40018	-534.07599	-864.48511	536.427	-526.64233	-868.3855	155.04265	-753.01257	-965.81372	182.15788	-760.83435
1042	5.2	-723.32532	83.238533	-699.72961	-723.82581	87.691193	-643.92438	-581.76398	505.51285	-734.77618	-630.25476	494.16681	-651.50806	-539.29236	987.99451	-782.02887	-825.42944	1015.7101	-599.61005	-785.10052	496.4252	-540.98669	-870.25378	534.45801	-535.53247	-869.95355	154.77016	-764.3429	-967.59088	182.24144	-773.93195
1043	5.205	-722.98883	83.258278	-700.20691	-723.42389	87.77282	-644.89624	-579.5697	505.58847	-733.97235	-629.72809	494.17432	-651.41418	-539.2854	988.97833	-780.31195	-828.64526	1013.8394	-602.50476	-790.48907	494.41336	-547.99408	-875.25531	532.53192	-545.73682	-872.81488	153.91019	-773.65692	-969.07117	182.21065	-786.73682
1044	5.21	-722.65308	83.36776	-700.86993	-723.664	87.987915	-645.29456	-577.58771	505.58765	-732.98895	-628.85236	494.13812	-651.02551	-539.48956	989.80408	-778.50781	-832.0119	1012.0383	-605.52924	-796.27625	493.0195	-554.79761	-881.18591	531.39581	-553.55963	-874.14728	153.33472	-784.255	-970.0694	182.07405	-798.90582
1045	5.215	-722.33142	83.410332	-701.23297	-723.74689	88.04435	-645.47345	-575.74365	505.38678	-731.91449	-627.85211	494.0528	-650.32507	-541.33734	989.83075	-775.90601	-835.52734	1010.4551	-608.71454	-801.9079	491.64688	-561.86279	-886.53253	530.09534	-562.47601	-875.58081	152.51126	-793.68317	-971.12354	181.88087	-810.68427
